PathFileType	4	(X/Y/Z)	C:/Users/opensim2020/Desktop/walking_exp_matlab/subject06_walking19_straight_04.trc																																																																																																																																																	
DataRate	CameraRate	NumFrames	NumMarkers	Units	OrigDataRate	OrigDataStartFrame	OrigNumFrames																																																																																																																																													
100	100	4	49	mm	100	4714	340																																																																																																																																													
Frame#	Time	LFHD			RFHD			LBHD			RBHD			C7			T10			CLAV			STRN			RBAK			LSHO			LUPA			LELB			LFRM			LWRA			LWRB			LFIN			RSHO			RUPA			RELB			RFRM			RWRA			RWRB			RFIN			LASI			RASI			LPSI			RPSI			LTHI			LKNE			LTIB			LANK			LHEE			LTOE			RTHI			RKNE			RTIB			RANK			RHEE			RTOE			*39			*40			*41			*42			*43			*44			*45			*46			*47			*48		
		X1	Y1	Z1	X2	Y2	Z2	X3	Y3	Z3	X4	Y4	Z4	X5	Y5	Z5	X6	Y6	Z6	X7	Y7	Z7	X8	Y8	Z8	X9	Y9	Z9	X10	Y10	Z10	X11	Y11	Z11	X12	Y12	Z12	X13	Y13	Z13	X14	Y14	Z14	X15	Y15	Z15	X16	Y16	Z16	X17	Y17	Z17	X18	Y18	Z18	X19	Y19	Z19	X20	Y20	Z20	X21	Y21	Z21	X22	Y22	Z22	X23	Y23	Z23	X24	Y24	Z24	X25	Y25	Z25	X26	Y26	Z26	X27	Y27	Z27	X28	Y28	Z28	X29	Y29	Z29	X30	Y30	Z30	X31	Y31	Z31	X32	Y32	Z32	X33	Y33	Z33	X34	Y34	Z34	X35	Y35	Z35	X36	Y36	Z36	X37	Y37	Z37	X38	Y38	Z38	X39	Y39	Z39	X40	Y40	Z40	X41	Y41	Z41	X42	Y42	Z42	X43	Y43	Z43	X44	Y44	Z44	X45	Y45	Z45	X46	Y46	Z46	X47	Y47	Z47	X48	Y48	Z48	X49	Y49	Z49
																																																																																																																																																				
171	1.7	-194.38701	1674.84546	985.73193	-188.97079	1662.24792	1117.10205	-324.62183	1613.81201	989.3468	-317.65259	1606.53992	1118.53418	-317.35468	1457.77783	1044.34082	-346.23187	1129.87292	1054.14453	-206.16962	1382.89001	1042.39917	-164.02287	1206.14722	1035.03357	-383.92889	1286.28796	1126.9281	-264.98376	1413.11133	882.16095	-255.13963	1210.35645	812.09814	-249.20045	1097.77185	802.51752	-200.1498	955.29077	782.40289	-118.14551	856.02679	823.6723	-178.16637	837.36707	790.05286	-119.97826	767.0365	788.92981	-245.80896	1413.52698	1204.65076	-279.79333	1217.23157	1298.18518	-269.19843	1095.85632	1313.10803	-245.3943	978.46606	1331.94458	-175.81073	844.44879	1301.08142	-228.85854	842.15063	1342.21179	-185.80246	769.43286	1345.01196	-181.05095	965.17841	935.93921	-167.34457	971.46387	1156.82764	-336.59369	997.62659	971.15308	-320.91391	1004.82263	1139.76086	-222.4675	650.12317	882.9621	-199.24141	489.45966	905.04688	-354.13068	295.32733	897.15405	-451.92209	150.64392	923.84741	-493.01428	152.18719	971.54169	-347.05634	54.1091	914.60889	-231.40363	638.29034	1208.23401	-233.23239	513.12109	1181.85632	-276.43173	250.29849	1173.85327	-283.46942	65.25349	1117.96838	-323.50745	41.0017	1074.20459	-128.69691	33.65109	1107.37122	-293.95703	1707.29907	1049.17212	NaN	NaN	NaN	NaN	NaN	NaN	NaN	NaN	NaN	NaN	NaN	NaN	NaN	NaN	NaN	NaN	NaN	NaN	NaN	NaN	NaN	NaN	NaN	NaN	NaN	NaN	NaN
172	1.71	-188.55763	1674.85107	986.21948	-183.2464	1662.32153	1117.57935	-318.89563	1613.9408	989.85895	-312.2825	1606.6908	1119.43408	-311.7695	1457.88562	1045.14868	-340.90527	1129.98035	1055.15063	-200.60266	1382.94678	1043.13403	-158.83527	1206.12573	1035.98242	-378.50342	1286.60083	1127.8573	-259.85968	1413.0741	882.8476	-251.34164	1210.3584	812.59229	-246.366	1097.80981	802.91675	-199.35495	954.72223	781.7124	-118.1497	854.30261	822.21777	-178.59485	836.44897	789.56305	-121.78439	765.18188	787.65906	-240.16208	1413.7627	1205.37659	-273.88785	1217.32031	1298.79407	-263.05368	1096.11902	1314.05457	-238.43854	978.88306	1332.53882	-167.96243	845.49976	1300.87488	-220.61073	842.58905	1342.22363	-177.13052	770.39532	1344.65735	-175.50197	965.55518	936.99506	-163.3333	971.07245	1157.36047	-331.14038	997.85596	971.84473	-315.48718	1004.45105	1140.26819	-214.6304	650.95508	883.29974	-189.95184	490.51294	906.23444	-340.43768	292.45978	898.02905	-433.84677	144.82646	924.67841	-474.63187	144.58107	972.54028	-325.28214	52.57447	914.89661	-227.90585	638.01978	1208.6355	-230.29688	512.79895	1182.36487	-275.0419	250.16504	1174.00183	-283.31964	65.38724	1118.01379	-323.42276	41.15201	1074.0697	-128.51154	33.43657	1107.60461	-288.16833	1707.39905	1049.62488	NaN	NaN	NaN	NaN	NaN	NaN	NaN	NaN	NaN	NaN	NaN	NaN	NaN	NaN	NaN	NaN	NaN	NaN	NaN	NaN	NaN	NaN	NaN	NaN	NaN	NaN	NaN
173	1.72	-182.7905	1674.73254	986.58313	-177.50417	1662.44824	1117.99219	-313.25638	1614.021	990.37549	-306.10059	1606.90759	1119.48523	-305.97449	1458.01624	1045.75879	-335.62918	1130.07764	1056.12158	-195.11848	1382.93018	1043.83167	-153.40895	1206.11072	1036.8866	-373.03775	1286.89587	1128.76416	-254.65285	1412.97327	883.55194	-247.52791	1210.25195	813.04706	-243.54665	1097.67493	803.2522	-198.48346	953.95392	781.7489	-118.39767	852.44818	820.76147	-179.74696	835.60889	788.34247	-123.67097	763.401	786.13867	-234.5239	1413.96558	1206.13416	-268.11588	1217.68567	1299.98914	-256.99066	1096.30725	1314.92114	-231.59825	979.24969	1333.0061	-160.19533	846.55109	1300.6073	-212.84314	843.19177	1342.34009	-168.56079	771.02295	1344.07593	-170.06332	965.82764	938.15314	-158.55762	970.81635	1158.46631	-325.81848	998.16541	972.46692	-311.02753	1004.54553	1141.24719	-206.84787	651.76904	883.7381	-180.86568	491.57114	907.30438	-326.33264	289.37903	898.89752	-415.2338	138.85597	925.59344	-455.96643	137.0211	973.5332	-303.46829	50.8317	915.07257	-224.43452	637.74896	1208.9884	-227.39513	512.48035	1182.80908	-273.72614	250.14052	1174.1106	-283.22107	65.47197	1117.86316	-323.63712	41.52536	1074.10413	-128.40131	33.28654	1107.86975	-282.32364	1707.48389	1049.92395	NaN	NaN	NaN	NaN	NaN	NaN	NaN	NaN	NaN	NaN	NaN	NaN	NaN	NaN	NaN	NaN	NaN	NaN	NaN	NaN	NaN	NaN	NaN	NaN	NaN	NaN	NaN
174	1.73	-177.07231	1674.6803	986.87964	-171.77412	1662.5929	1118.31274	-307.42419	1613.84314	990.75897	-300.39154	1607.10596	1119.9613	-300.32053	1458.13135	1046.50354	-330.38535	1130.15027	1057.05127	-189.6049	1382.8772	1044.55042	-148.13184	1206.03259	1037.86145	-367.5643	1287.15186	1129.65088	-249.24561	1412.76917	884.21838	-243.73222	1210.06494	813.47876	-240.94772	1097.48889	803.5387	-198.13211	953.1734	780.86151	-118.70689	850.5437	819.211	-180.7494	834.56213	787.86835	-125.98489	761.51324	784.88202	-228.8481	1414.07068	1206.87317	-262.33719	1217.80457	1300.83618	-251.14003	1096.47107	1315.74426	-224.78526	979.56128	1333.41504	-152.43723	847.57611	1300.16418	-204.55701	843.67126	1342.24097	-160.0713	771.83636	1343.40369	-164.62508	966.17743	939.29297	-153.23058	970.71008	1159.81128	-320.40036	998.33875	973.04468	-306.19046	1004.40784	1141.93701	-199.06178	652.54504	884.10315	-171.94502	492.56882	908.19952	-312.08716	286.08444	899.69568	-396.13995	132.83641	926.54218	-436.54529	129.46051	974.55963	-281.10297	49.34177	915.42218	-220.88826	637.48914	1209.27673	-224.42416	512.16504	1183.19336	-272.41812	250.09473	1174.25305	-283.05963	65.47887	1117.52234	-323.64023	41.7425	1074.08948	-128.23697	33.04367	1108.06848	-276.58957	1707.49524	1050.15955	NaN	NaN	NaN	NaN	NaN	NaN	NaN	NaN	NaN	NaN	NaN	NaN	NaN	NaN	NaN	NaN	NaN	NaN	NaN	NaN	NaN	NaN	NaN	NaN	NaN	NaN	NaN
